<svg width="76" height="76" viewBox="0 0 76 76" fill="none" xmlns="http://www.w3.org/2000/svg">
<g clip-path="url(#clip0_28_519)">
<path d="M56.67 75.53H18.86C13.8596 75.5247 9.0656 73.536 5.52981 70.0002C1.99402 66.4644 0.00529419 61.6704 0 56.67L0 18.86C0.00529419 13.8596 1.99402 9.0656 5.52981 5.52981C9.0656 1.99402 13.8596 0.00529419 18.86 0H56.67C61.6704 0.00529419 66.4644 1.99402 70.0002 5.52981C73.536 9.0656 75.5247 13.8596 75.53 18.86V56.67C75.5247 61.6704 73.536 66.4644 70.0002 70.0002C66.4644 73.536 61.6704 75.5247 56.67 75.53ZM18.86 12C17.0414 12.0026 15.2981 12.7262 14.0122 14.0122C12.7262 15.2981 12.0026 17.0414 12 18.86V56.67C12 58.4894 12.7227 60.2343 14.0092 61.5208C15.2957 62.8073 17.0406 63.53 18.86 63.53H56.67C58.4894 63.53 60.2343 62.8073 61.5208 61.5208C62.8073 60.2343 63.53 58.4894 63.53 56.67V18.86C63.53 17.0406 62.8073 15.2957 61.5208 14.0092C60.2343 12.7227 58.4894 12 56.67 12H18.86Z" fill="#FFC83E"/>
</g>
<defs>
<clipPath id="clip0_28_519">
<rect width="75.53" height="75.53" fill="white"/>
</clipPath>
</defs>
</svg>
